<svg width="592" height="111" viewBox="0 0 592 111" fill="none" xmlns="http://www.w3.org/2000/svg">
<g clip-path="url(#clip0)">
<path fill-rule="evenodd" clip-rule="evenodd" d="M26.9599 89.0045C27.2821 89.185 28.5098 89.5642 29.6899 89.8471C30.87 90.1293 31.8348 90.8407 31.8348 91.4269C31.8348 92.8863 36.4452 94.3887 41.3887 94.5404C42.997 94.5896 44.3128 94.9203 44.3136 95.276C44.3136 95.6308 45.8205 95.8278 47.6612 95.7145C49.502 95.6011 51.3443 95.7059 51.7561 95.9474C52.1671 96.189 53.3815 96.3086 54.454 96.2132C55.5265 96.1178 56.6083 96.3516 56.8587 96.733C57.1176 97.1278 58.2509 97.0699 59.4887 96.5978C60.8919 96.0631 61.9847 96.0365 62.5696 96.5228C63.1086 96.9714 63.9299 96.9957 64.5952 96.5837C65.2106 96.2023 67.8306 95.6723 70.4185 95.4049C76.9297 94.7319 79.7696 94.3731 79.9981 94.1957C80.1058 94.112 80.4568 93.9948 80.7781 93.9346C81.0995 93.8744 81.7757 93.5617 82.2796 93.2404C82.7834 92.9192 84.5782 92.5228 86.2676 92.3603C87.9578 92.1969 90.0668 91.6739 90.9552 91.1971C91.8436 90.7211 93.4316 90.331 94.4838 90.331C95.5368 90.331 99.5084 89.4172 103.31 88.3009C107.112 87.1839 110.573 86.2068 111.002 86.1286C111.431 86.0512 112.133 85.7823 112.562 85.5314C112.991 85.2805 114.395 84.8279 115.682 84.5254C117.992 83.9829 125.132 80.946 128.162 79.2185C132.341 76.8343 133.784 76.2699 135.714 76.2653C137.119 76.2621 137.969 75.747 138.301 74.6972C138.573 73.8373 139.123 73.1338 139.523 73.1338C140.629 73.1338 140.393 74.3876 139.081 75.4789C138.438 76.0143 137.911 76.821 137.911 77.2721C137.911 77.7231 137.317 78.7495 136.591 79.5538C135.742 80.4934 135.333 82.0896 135.446 84.0173C135.603 86.6742 135.324 87.1956 133.018 88.5597C130.646 89.962 130.408 90.4428 130.356 93.9283L130.298 97.757L135.909 97.922L141.52 98.0861L145.274 94.209C147.338 92.0757 149.334 90.331 149.709 90.331C150.084 90.331 150.391 89.8643 150.391 89.2945C150.391 88.7238 151.646 87.2292 153.181 85.9723C154.715 84.7153 157.786 82.0255 160.006 79.9947C162.225 77.9639 164.304 76.2934 164.625 76.2817C164.947 76.2699 165.21 75.6 165.21 74.7926C165.21 73.2354 167.002 71.2812 167.746 72.0269C167.989 72.2708 168.409 71.7721 168.679 70.9201C168.949 70.0672 169.683 69.1722 170.31 68.9314C170.937 68.6899 171.45 67.6401 171.45 66.5973C171.45 65.5553 171.977 64.5 172.62 64.2522C173.264 64.0052 173.79 63.3017 173.79 62.6889C173.79 62.0768 174.316 61.3733 174.96 61.1255C175.603 60.8785 176.13 60.1585 176.13 59.5269C176.13 58.8953 177.183 57.2225 178.47 55.8108C179.985 54.1481 180.811 52.4089 180.815 50.8767C180.819 49.0523 181.445 48.0845 183.545 46.6509C185.075 45.6058 186.27 44.1308 186.27 43.2826C186.27 42.4532 186.603 41.9803 187.011 42.2328C187.418 42.4853 188.132 41.978 188.598 41.1064C189.063 40.2348 190.122 39.5211 190.949 39.5211C191.777 39.5211 192.796 38.8817 193.213 38.1008C193.952 36.7156 204.687 30.9225 206.515 30.9225C207.02 30.9225 208.55 30.0744 209.916 29.0387C211.282 28.0021 213.742 26.9445 215.383 26.6881C217.024 26.4317 220.288 25.3116 222.636 24.1984C224.984 23.0853 227.501 22.059 228.231 21.9183C228.961 21.7775 229.734 21.5962 229.948 21.5157C230.163 21.4352 231.095 21.4289 232.018 21.5016C232.942 21.5751 233.929 21.2624 234.21 20.8067C234.49 20.3517 235.554 19.9789 236.573 19.9789C237.593 19.9789 239.415 19.5724 240.622 19.0752C244.835 17.3407 246.112 17.4478 246.647 19.5833C247.258 22.0246 244.267 27.9193 240.283 32.1263C239.747 32.6931 239.308 33.3567 239.308 33.603C239.308 33.8484 238.694 34.7161 237.943 35.5306C237.192 36.3451 235.767 37.982 234.776 39.167C233.786 40.3521 231.68 42.2852 230.096 43.4616C227.571 45.34 222.085 50.2279 216.997 55.1346C216.093 56.0054 214.991 56.7183 214.545 56.7183C214.1 56.7183 213.534 57.246 213.286 57.8908C213.04 58.5357 212.378 59.0634 211.815 59.0634C211.253 59.0634 210.287 59.7669 209.669 60.6268C209.05 61.4866 208.183 62.1987 207.741 62.2089C207.3 62.2191 205.919 63.6081 204.674 65.2958C203.428 66.9843 201.386 68.8611 200.137 69.4677C198.886 70.0743 197.939 70.8325 198.03 71.1522C198.24 71.8886 196.437 74.5659 194.654 76.1652C193.903 76.839 193.289 77.8505 193.289 78.4133C193.289 78.9762 192.763 79.639 192.119 79.886C190.185 80.6302 190.551 87.5529 192.627 89.4915C193.551 90.3537 194.604 90.8743 194.967 90.6484C195.331 90.4232 195.629 90.6116 195.629 91.0666C195.629 91.5215 196.331 91.8944 197.189 91.8944C198.047 91.8944 198.749 92.2258 198.749 92.6315C198.749 93.643 219.554 93.0794 220.811 92.0335C221.354 91.5825 222.666 91.0861 223.728 90.9298C227.001 90.4498 239.63 86.2443 240.868 85.2226C242.186 84.1345 250.697 80.169 251.715 80.169C252.079 80.169 252.83 79.6211 253.385 78.9511C254.664 77.4073 259.222 75.4789 261.593 75.4789C262.592 75.4789 263.69 75.0177 264.033 74.4549C264.376 73.8913 265.5 72.8532 266.53 72.1481C268.186 71.0154 268.708 70.9943 271.029 71.966C272.473 72.571 273.824 73.0814 274.031 73.1002C274.237 73.1182 274.495 73.1604 274.602 73.194C277.757 74.1617 289.601 76.3356 293.516 76.6655C301.251 77.3174 302.616 77.251 309.115 75.9096C312.547 75.2014 316.181 74.49 317.191 74.329C318.201 74.1672 319.821 73.287 320.792 72.3732C321.763 71.4586 323.394 70.6347 324.416 70.5417C326.282 70.3721 327.982 69.4505 334.432 65.1129C336.556 63.6847 338.024 63.1196 338.203 63.6597C338.365 64.1467 338.843 64.3312 339.264 64.0709C339.685 63.8098 340.219 64.3234 340.451 65.2122C340.683 66.1009 341.537 67.0397 342.349 67.2977C343.16 67.5564 343.824 68.0591 343.824 68.4155C343.824 68.772 345.791 69.087 348.195 69.1159C350.599 69.1448 353.04 69.563 353.621 70.0461C354.201 70.5284 355.124 70.6449 355.674 70.3056C356.222 69.9656 359.308 69.6357 362.532 69.5716C368.572 69.4528 372.909 68.754 374.997 67.5627C376.115 66.9256 380.148 65.2598 381.458 64.894C381.78 64.8041 382.131 64.6603 382.238 64.5751C382.345 64.4891 383.297 64.2601 384.352 64.0662C386.771 63.6214 391.592 60.8152 392.417 59.3737C392.76 58.7726 393.819 58.2817 394.771 58.2817C395.722 58.2817 398.228 56.852 400.339 55.1033C406.811 49.7433 407.977 49.4627 407.977 53.2671C407.977 54.6484 408.471 55.4817 409.44 55.7357C410.387 55.9843 410.902 56.8207 410.902 58.1121C410.902 59.2088 411.106 59.9006 411.357 59.6504C411.606 59.3995 413.098 60.5134 414.672 62.1245C416.245 63.7355 418.688 65.4521 420.101 65.9383C421.514 66.4253 423.62 67.4994 424.781 68.3264C426.4 69.4802 428.033 69.7944 431.794 69.6756C434.711 69.5841 436.996 69.8843 437.438 70.4182C437.966 71.0561 439.588 71.1155 443.066 70.6246C445.752 70.2447 449.355 69.8124 451.071 69.6639C455.3 69.2965 456.948 68.8658 457.568 67.9653C457.855 67.5471 459.67 66.7075 461.6 66.0994C463.531 65.4912 465.375 64.5665 465.7 64.0435C466.024 63.5214 467.34 62.8624 468.625 62.5802C469.909 62.2972 470.96 61.582 470.96 60.991C470.96 60.3852 472.129 59.6958 473.639 59.412C475.112 59.1353 476.921 58.2403 477.66 57.4226C478.398 56.605 479.47 55.9366 480.044 55.9366C480.618 55.9366 481.525 55.2331 482.061 54.3732C482.596 53.5134 483.492 52.8099 484.05 52.8099C484.609 52.8099 486.923 51.4349 489.193 49.7542C491.462 48.0744 494.168 46.5704 495.205 46.4141C496.241 46.257 497.002 45.6973 496.894 45.1696C496.787 44.6428 497.172 44.2113 497.749 44.2113C499.125 44.2113 503.731 41.9639 505.511 40.424C506.283 39.7572 507.451 39.1318 508.108 39.0357C509.746 38.7942 519.247 34.0149 519.768 33.1699C520.001 32.7939 520.959 32.4718 521.899 32.4547C522.839 32.4375 525.539 31.383 527.898 30.1104C530.257 28.837 532.76 27.7958 533.458 27.7958C534.584 27.7958 536.578 26.9977 546.345 22.639C547.697 22.0355 549.311 21.5423 549.93 21.5423C550.55 21.5423 552.14 21.0013 553.463 20.34C555.964 19.0893 562.275 17.1914 566.77 16.3378C568.201 16.0665 569.555 15.3669 569.778 14.7845C570.001 14.2022 571.058 13.7253 572.127 13.7253C573.957 13.7253 579.71 11.4545 579.193 10.9363C578.702 10.4438 566.49 12.3785 566.087 13.0125C565.667 13.6722 557.517 15.9797 554.213 16.3737C552.241 16.6098 551.041 17.0554 545.301 19.6873C543.075 20.7074 540.509 21.5423 539.598 21.5423C538.687 21.5423 535.986 22.4693 533.597 23.602C529.609 25.4921 526.924 26.3637 521.658 27.4761C520.586 27.7028 519.598 28.1991 519.463 28.5798C519.328 28.9597 517.924 29.6781 516.343 30.1752C512.397 31.4166 496.13 39.3288 495.532 40.2981C495.266 40.7304 494.432 41.0845 493.681 41.0845C492.929 41.0845 491.545 41.8021 490.607 42.6784C489.668 43.5546 488.899 44.0284 488.899 43.7298C488.899 43.4311 488.285 43.7102 487.534 44.3488C486.784 44.9875 484.502 46.1264 482.465 46.8792C479.808 47.8618 478.76 48.6732 478.76 49.748C478.76 50.5719 478.233 51.2465 477.59 51.2465C476.946 51.2465 476.42 51.5982 476.42 52.0282C476.42 52.4581 475.912 52.8099 475.291 52.8099C474.315 52.8099 471.661 54.1067 465.099 57.7908C464.235 58.2754 462.431 59.4605 461.09 60.4227C459.749 61.3858 457.946 62.2816 457.083 62.4137C456.219 62.5458 455.04 63.0195 454.462 63.4666C452.314 65.1277 444.74 67.5142 442.101 67.361C440.599 67.2743 438.452 67.4447 437.329 67.7394C435.422 68.2396 434.502 67.9723 428.061 65.0425C426.989 64.554 425.544 63.537 424.85 62.7819C424.156 62.0268 423.016 61.4085 422.315 61.4085C421.615 61.4085 421.042 60.9183 421.042 60.3196C421.042 59.7208 420.515 59.0282 419.872 58.7804C419.169 58.5107 418.702 57.3319 418.702 55.8311C418.702 54.4561 418.471 53.5626 418.188 53.8456C417.906 54.1286 417.252 54.0074 416.735 53.5767C415.589 52.6246 415.959 45.7262 417.196 44.9593C417.759 44.6107 417.634 44.2676 416.831 43.9588C416.119 43.6852 415.8 42.9864 416.069 42.2868C416.393 41.4394 416.044 41.0845 414.885 41.0845C413.981 41.0845 413.242 40.7507 413.242 40.3435C413.242 38.8418 408.107 41.4378 405.308 44.3543C403.733 45.9951 402.052 47.338 401.571 47.338C401.09 47.338 399.967 48.0197 399.074 48.8529C396.64 51.1261 386.096 58.2817 385.181 58.2817C384.742 58.2817 384.383 58.5506 384.383 58.8789C384.383 59.5003 378.695 62.1901 377.381 62.1901C376.968 62.1901 374.776 63.0312 372.512 64.0599C367.098 66.5184 356.454 67.8777 349.479 67.003C348.943 66.935 348.504 66.3526 348.504 65.7077C348.504 65.0629 347.843 64.5352 347.036 64.5352C345.861 64.5352 345.56 63.9364 345.527 61.5367C345.495 59.2072 346.08 57.8549 348.15 55.4786C349.615 53.7956 350.821 52.0329 350.829 51.5615C350.837 51.0901 351.546 49.8926 352.404 48.9014C354.621 46.3398 354.355 45.376 351.164 44.3942C348.318 43.5187 346.164 43.8126 346.164 45.0766C346.164 45.4604 345.79 45.7747 345.332 45.7747C344.483 45.7747 338.945 51.1574 338.697 52.2236C338.621 52.5457 338.516 53.2969 338.462 53.8909C338.408 54.4858 337.627 55.1659 336.726 55.4019C335.825 55.638 335.295 56.168 335.549 56.58C335.803 56.9919 335.049 57.9471 333.873 58.7022C332.697 59.4574 331.208 60.5509 330.565 61.1325C328.233 63.2415 318.632 69.2254 317.581 69.2254C316.988 69.2254 315.894 69.5388 315.149 69.9218C306.85 74.1875 306.504 74.2665 296.808 74.1367C291.337 74.0632 287.22 73.6747 286.929 73.2042C286.655 72.7602 285.503 72.5655 284.368 72.7711C283.234 72.9775 282.088 72.7914 281.82 72.3584C281.553 71.9253 280.444 71.5704 279.357 71.5704C278.037 71.5704 277.245 71.0514 276.973 70.007C276.748 69.1472 276.079 68.4437 275.485 68.4437C273.772 68.4437 274.223 67.311 276.651 65.5115C278.118 64.4242 279.509 64.0107 280.672 64.3156C281.905 64.6384 282.279 64.5039 281.891 63.8755C281.554 63.3291 282.06 62.6912 283.166 62.2699C284.175 61.8861 285.467 61.0067 286.039 60.3172C286.61 59.6278 287.513 59.0634 288.045 59.0634C288.578 59.0634 289.987 57.6563 291.176 55.9366C292.365 54.2169 293.567 52.8099 293.846 52.8099C294.981 52.8099 294.485 49.7699 293.268 49.2594C290.731 48.1948 286.325 48.0759 284.083 49.0101C282.837 49.5299 280.823 50.0677 279.609 50.2053C276.885 50.5148 267.558 56.6081 266.948 58.4771C266.703 59.2299 265.999 59.8451 265.385 59.8451C264.675 59.8451 264.267 60.6612 264.267 62.0807C264.267 63.562 263.346 65.295 261.537 67.2172C260.036 68.8126 258.807 70.4448 258.807 70.8442C258.807 71.2437 257.853 71.5704 256.687 71.5704C255.367 71.5704 253.905 72.3427 252.811 73.6177C251.821 74.773 250.57 75.4781 249.94 75.2358C249.326 74.9997 247.711 75.6282 246.353 76.6334C244.993 77.6379 242.853 78.887 241.595 79.4092C240.337 79.9314 239.308 80.6513 239.308 81.0086C239.308 82.203 232.949 84.6614 219.418 88.7004C213.568 90.4467 204.458 91.3667 203.787 90.2794C203.562 89.9151 202.863 89.8159 202.234 90.0582C201.52 90.3326 201.089 90.0253 201.089 89.2421C201.089 88.5073 200.442 87.9859 199.529 87.9859C197.862 87.9859 197.688 87.2433 198.454 83.406C198.721 82.0693 199.246 81.1665 199.621 81.3986C199.996 81.6308 200.706 80.9327 201.2 79.847C201.694 78.7612 202.397 78.0585 202.763 78.2851C203.129 78.5126 203.429 78.0577 203.429 77.2752C203.429 76.4927 204.482 74.9809 205.769 73.9155C207.056 72.8501 208.109 71.6064 208.109 71.1514C208.109 70.0477 219.403 59.6645 221.683 58.6725C222.67 58.2426 225.416 55.8678 227.783 53.3961C230.15 50.9244 232.315 48.9014 232.594 48.9014C233.901 48.9014 239.338 44.6357 239.036 43.847C238.848 43.3569 239.699 42.5103 240.925 41.9663C242.152 41.4222 244.133 39.4305 245.327 37.5411C246.52 35.6525 247.937 34.0939 248.472 34.0782C249.009 34.0618 249.447 33.363 249.447 32.525C249.447 31.6862 249.887 30.7193 250.422 30.3754C250.959 30.0314 251.748 29.1872 252.177 28.4993C252.606 27.8106 253.935 25.7751 255.13 23.9749C256.325 22.1754 257.108 20.3846 256.868 19.9961C256.629 19.6084 257.086 18.6539 257.885 17.8761C262.349 13.5276 260.057 12.4145 247.887 13.0218C245.449 13.1438 237.625 15.2309 236.578 16.0384C235.835 16.6129 231.362 17.4642 226.536 17.9496C225.303 18.0739 223.97 18.7571 223.573 19.4684C223.176 20.179 222.002 20.7606 220.966 20.7606C219.156 20.7606 215.493 22.1043 211.109 24.3774C209.97 24.9676 208.604 25.4507 208.074 25.4507C207.543 25.4507 205.667 26.1222 203.905 26.9429C202.141 27.7629 199.295 29.0035 197.579 29.6992C195.863 30.3949 193.572 31.4205 192.489 31.9786C191.406 32.5367 190.09 32.8502 189.564 32.6743C188.202 32.2194 188.368 26.624 189.779 25.4507C191.29 24.1945 191.29 21.0592 189.779 20.4776C188.833 20.1141 188.609 18.3053 188.609 11.0137V2H183.785H178.96L174.096 7.0208C171.42 9.78251 168.421 12.4762 167.431 13.0078C166.44 13.5393 164.983 14.797 164.193 15.8039C163.404 16.8099 162.344 17.644 161.838 17.6557C161.334 17.6682 158.832 19.069 156.278 20.7692C153.725 22.4693 151.43 23.5254 151.178 23.1166C150.926 22.7085 149.593 22.288 148.215 22.1825C146.838 22.0777 145.711 21.6939 145.711 21.3296C145.711 20.9661 145.388 20.8684 144.994 21.1123C144.599 21.357 143.809 21.1139 143.239 20.5722C142.264 19.6482 140.154 19.1941 135.571 18.922C134.499 18.8587 133.385 18.478 133.096 18.0762C132.808 17.6745 131.053 17.2594 129.197 17.1538C125.353 16.935 121.509 16.1267 120.362 15.2958C119.933 14.9854 116.598 14.6946 112.952 14.6493C109.306 14.604 105.863 14.5539 105.301 14.5375C104.74 14.5203 104.475 14.1905 104.714 13.8035C105.163 13.075 100.274 13.2727 99.0467 14.0333C98.6645 14.2694 95.4783 14.5336 91.9653 14.6204C88.4523 14.7072 85.4174 15.0386 85.2216 15.356C84.9167 15.85 81.3311 16.6856 77.0732 17.2562C76.4298 17.3422 74.9455 17.8026 73.7747 18.2795C72.604 18.7563 70.3226 19.2167 68.7049 19.3027C67.0872 19.3887 65.1974 19.7381 64.5063 20.0797C63.8145 20.4213 62.1524 20.8942 60.8124 21.1303C59.4724 21.3672 56.8119 22.4357 54.9002 23.5059C52.9884 24.5752 50.92 25.4507 50.3046 25.4507C49.6892 25.4507 48.7516 25.9744 48.2212 26.6146C47.6909 27.2548 46.9702 27.6011 46.62 27.3838C46.269 27.1665 45.7807 27.315 45.5342 27.7145C45.2878 28.1139 42.0173 29.4162 38.2657 30.6075C30.8115 32.9753 29.5573 33.9883 29.5198 37.6693C29.4964 39.9331 29.7655 40.1856 33.0898 41.0243C35.8501 41.7208 37.343 41.713 39.5245 40.9884C41.086 40.4701 44.9493 40.0339 48.1089 40.0198C53.8176 39.9941 53.8425 39.9847 52.0759 38.5511C50.6758 37.4145 50 38 49.658 38.1196C49.647 38.1176 49.511 38.002 49.5 38C49.5 38 48.5559 37.2636 48.0192 37.3715C47.4834 37.4786 47.0934 36.9517 47.1527 36.1989C47.212 35.447 46.7736 34.831 46.1777 34.831C45.5818 34.831 45.0943 34.5199 45.0943 34.1392C45.0943 32.9565 48.8483 30.9155 50.1236 31.4056C50.7913 31.6628 51.3341 31.4627 51.3341 30.9601C51.3341 30.459 51.6609 30.2511 52.0603 30.4981C52.4596 30.7459 53.0103 30.5848 53.2833 30.1416C53.724 29.4279 58.2088 27.2095 60.3038 26.6694C60.7328 26.5591 61.6103 26.2527 62.2537 25.9885C72.93 21.611 81.5191 19.3262 89.5528 18.7258C92.3412 18.5179 96.1116 17.966 97.9313 17.5001C101.539 16.5762 114.164 17.1671 115.602 18.3279C116.075 18.7094 117.603 18.9267 118.997 18.8095C120.391 18.693 121.532 18.8845 121.532 19.2355C121.532 19.5872 122.497 19.8702 123.677 19.8647C124.856 19.8601 127.747 20.3807 130.099 21.0224C132.452 21.665 134.645 22.0238 134.974 21.8198C135.302 21.6165 135.571 21.7783 135.571 22.1801C135.571 22.8594 139.218 24.0624 141.747 24.2172C142.355 24.2539 142.993 24.7034 143.163 25.2146C143.333 25.7259 143.93 25.9682 144.491 25.7524C145.051 25.5375 145.722 25.915 145.981 26.592C146.326 27.4917 145.616 28.1593 143.352 29.0668C141.646 29.7508 140.251 30.5575 140.251 30.86C140.251 31.1617 137.531 32.7892 134.206 34.4761C130.882 36.163 127.46 38.1242 126.602 38.834C125.744 39.5446 122.936 40.7249 120.362 41.4566C117.788 42.189 115.155 43.2326 114.512 43.7759C111.709 46.1428 102.826 48.9507 100.277 48.2745C99.9561 48.1893 99.6925 48.4715 99.6925 48.9014C99.6925 49.3313 99.049 49.6831 98.2628 49.6831C97.4758 49.6831 96.5851 49.9309 96.2832 50.2334C95.561 50.9573 79.0996 56.5932 75.2231 57.4437C73.5626 57.808 71.9831 58.4357 71.7133 58.8375C71.1571 59.6668 68.8258 60.7221 66.6044 61.1505C65.7808 61.3092 64.7138 61.7657 64.2341 62.1651C63.7544 62.5638 61.9722 63.2353 60.2734 63.6582C58.5738 64.0803 55.2535 64.9925 52.8941 65.6859C50.5346 66.3784 47.9514 67.0937 47.1542 67.275C44.5109 67.8769 39.2757 70.7239 37.1339 72.725C35.9725 73.81 34.5179 74.6972 33.9009 74.6972C33.2847 74.6972 31.6538 75.7509 30.278 77.0391C28.9021 78.3274 27.4607 79.1864 27.0754 78.9472C26.6885 78.708 26.375 80.7897 26.375 83.5944C26.375 86.3889 26.6378 88.8231 26.9599 89.0045ZM43.1358 77.3732C43.1358 77.3732 43.7816 75.7431 44.0234 75.1115C44.475 73.9327 52.2482 70.007 54.1311 70.007C54.7075 70.007 56.8587 69.4356 58.9116 68.7368C60.9645 68.038 62.9947 67.3868 63.4237 67.2883C65.1451 66.8944 69.9739 64.5157 70.3756 63.863C70.6119 63.4807 71.732 63.1673 72.8653 63.1673C73.9986 63.1673 77.0756 62.1956 79.7041 61.0074C86.4493 57.9589 87.2667 57.6556 90.3328 57.0654C91.8342 56.7769 94.2912 55.9999 95.7926 55.3394C97.2941 54.6797 99.3914 53.9933 100.453 53.8151C101.515 53.6369 102.806 53.1397 103.323 52.7098C103.84 52.2799 105.324 51.7937 106.621 51.6287C107.919 51.4646 109.786 50.8025 110.771 50.1584C111.756 49.5135 113.751 48.7779 115.205 48.5231C116.658 48.2682 119.367 47.1661 121.226 46.0748C123.085 44.9836 124.92 44.2848 125.304 44.5232C125.688 44.7616 126.631 44.2605 127.398 43.4108C128.165 42.5611 129.485 41.8662 130.331 41.8662C132.403 41.8662 143.078 36.657 146.567 33.943C148.111 32.7423 150.831 31.5268 152.612 31.2415C155.557 30.7693 155.851 30.8733 155.851 32.3859C155.851 33.3434 156.347 34.0493 157.021 34.0493C158.338 34.0493 158.299 33.8062 158.315 42.1195C158.325 46.6228 158.001 48.5973 157.089 49.6073C156.408 50.3616 155.849 51.4786 155.847 52.0899C155.843 53.3195 151.487 58.2817 150.411 58.2817C149.575 58.2817 144.931 62.8632 144.931 63.6886C144.931 64.017 143.504 64.7564 141.762 65.3333C140.019 65.9094 137.803 67.2852 136.838 68.3897C135.04 70.4479 132.961 72.0011 130.891 72.8313C130.248 73.09 128.615 73.7912 127.264 74.39C125.912 74.9888 124.541 75.4789 124.217 75.4789C123.893 75.4789 122.479 76.3583 121.072 77.4331C119.666 78.5079 117.998 79.3873 117.366 79.3873C116.733 79.3873 114.517 80.2276 112.439 81.2548C107.971 83.4638 99.0568 86.4225 96.869 86.4225C96.0196 86.4225 94.9908 86.729 94.5837 87.1026C92.6197 88.906 78.2284 92.1039 66.9336 93.2475C59.7617 93.9729 45.5764 93.5578 43.9244 92.5737C43.4954 92.3173 42.3597 92.1773 41.4004 92.261C39.3873 92.4369 38.9957 91.459 38.9957 86.2467C38.9957 82.8885 39.2367 82.4046 41.6554 80.9069C44.2738 79.2849 43.1358 77.3732 43.1358 77.3732ZM144.136 82.5141C144.557 82.5141 145.121 81.6347 145.39 80.5599C145.659 79.485 146.201 78.6056 146.592 78.6056C146.984 78.6056 147.699 77.7372 148.182 76.6756C148.664 75.6149 149.32 74.9082 149.64 75.106C149.959 75.3038 150.743 74.6769 151.38 73.713C152.018 72.75 153.548 70.8818 154.78 69.5615C157.959 66.1572 160.53 63.0273 160.53 62.563C160.53 61.7563 167.361 55.1549 168.196 55.1549C169.185 55.1549 168.552 57.4945 167.244 58.6725C166.766 59.1025 165.148 61.2943 163.648 63.5432C162.148 65.7922 160.307 67.8386 159.555 68.0911C158.804 68.3428 158.191 69.2128 158.191 70.0242C158.191 70.8356 157.401 72.3334 156.436 73.3527C155.47 74.3712 154.125 75.8822 153.447 76.71C152.768 77.5378 151.141 79.1489 149.832 80.2902C148.522 81.4322 147.322 82.7048 147.166 83.1183C147.009 83.5326 146.092 84.1166 145.126 84.4175C143.82 84.8248 143.371 84.6504 143.371 83.739C143.371 83.0652 143.715 82.5141 144.136 82.5141ZM164.421 22.4537C165.702 21.1694 167.808 19.6498 169.101 19.076C170.392 18.503 171.45 17.7471 171.45 17.3969C171.45 17.0468 171.779 16.9639 172.182 17.2132C172.585 17.4626 173.2 17.2195 173.549 16.6731C173.898 16.1267 175.094 14.8783 176.206 13.8989C179.151 11.3045 180.701 12.2581 180.799 16.7231C181.007 26.2715 180.718 29.528 179.532 31.0077C178.19 32.6821 177.468 35.6127 178.398 35.6127C178.962 35.6127 178.961 36.2724 178.396 37.7623C177.947 38.945 177.677 39.912 177.794 39.912C177.912 39.912 177.06 40.8633 175.9 42.0264C174.739 43.1888 173.79 43.761 173.79 43.2983C173.79 42.7565 173.442 42.7167 172.815 43.1865C172.279 43.5875 171.489 43.8892 171.06 43.8564C169.074 43.704 168.585 42.4876 168.859 38.3767C169.12 34.4581 168.998 34.0493 167.569 34.0493C166.686 34.0493 165.99 33.5326 165.99 32.8768C165.99 32.2319 165.525 31.7042 164.958 31.7042C164.129 31.7042 162.82 28.6822 162.189 25.3155C162.135 25.0263 163.139 23.738 164.421 22.4537ZM276.393 57.6259C279.308 56.2946 279.741 56.5456 277.526 58.2817C275.421 59.9326 274.407 60.2273 274.407 59.1892C274.407 58.8281 275.3 58.1246 276.393 57.6259Z" fill="black"/>
</g>
<defs>
<clipPath id="clip0">
<rect width="111" height="592" fill="white" transform="translate(0 111) rotate(-90)"/>
</clipPath>
</defs>
</svg>
